# xmcd CD database file
#
# Track frame offsets:
#	150
#	17535
#	33549
#	56050
#	76136
#	100088
#	118682
#	136410
#	152378
#	159810
#	182263
#	207093
#	236436
#	250469
#	267537
#
# Disc length: 3959 seconds
#
# Revision: 0
# Processed by: cddbd v1.5.2PL0 Copyright (c) Steve Scherf et al.
# Submitted via: CDex 1.51
#
DISCID=b60f750f
DTITLE=Heinz Glass and Jurgen Bailey - Taste a Glass of Bailey
DYEAR=2002
DGENRE=Blues
TTITLE0=My Mother
TTITLE1=Hey Hey
TTITLE2=Intro (Talk Too Much)
TTITLE3=Tell Me
TTITLE4=Kansas City
TTITLE5=South Bound
TTITLE6=Nobody Knows You
TTITLE7=Route 66
TTITLE8=Intro (Journey On Strings)
TTITLE9=Help Me
TTITLE10=Mojo
TTITLE11=Why Do You Lie to Me
TTITLE12=Blow Wind Blow
TTITLE13=My Brand (I've been watching you)
TTITLE14=Picking Willi
EXTD=YEAR: 2002
EXTT0=
EXTT1=
EXTT2=
EXTT3=
EXTT4=
EXTT5=
EXTT6=
EXTT7=
EXTT8=
EXTT9=
EXTT10=
EXTT11=
EXTT12=
EXTT13=
EXTT14=
PLAYORDER=
